# xmcd
# 
# Track frame offsets:
#     150
#     16067
#     28547
#     51527
#     66625
#     86622
#     103702
#     125107
#     144030
#     160545
#     177412
#     193737
#     211037
#     224750
#     242565
#     265560
#     281507
#     305365
# 
# Disc length: 4332
# 
# Revision: 2
# Processed by: cddbd v1.5.2PL0 Copyright (c) Steve Scherf et al.
# Submitted via: fre:ac v1.0.17
# 
DISCID=0310ea12
DTITLE=かぐや姫 - かぐや姫ベスト・ドリーミン・コンサート
DYEAR=2000
DGENRE=New Age
TTITLE0=僕の胸でおやすみ
TTITLE1=黄色い船
TTITLE2=赤ちょうちん
TTITLE3=加茂の流れに
TTITLE4=置手紙
TTITLE5=おはようおやすみ日曜日
TTITLE6=あの人の手紙
TTITLE7=22才の別れ
TTITLE8=人生は流行ステップ
TTITLE9=こもれ陽
TTITLE10=けれど生きている
TTITLE11=湘南 夏
TTITLE12=眼をとじて
TTITLE13=ひとりきり
TTITLE14=マキシーのために
TTITLE15=神田川
TTITLE16=なごり雪
TTITLE17=おもかげ道の空
EXTD=
EXTT0=
EXTT1=
EXTT2=
EXTT3=
EXTT4=
EXTT5=
EXTT6=
EXTT7=
EXTT8=
EXTT9=
EXTT10=
EXTT11=
EXTT12=
EXTT13=
EXTT14=
EXTT15=
EXTT16=
EXTT17=
PLAYORDER=
